<svg width="16" height="16" viewBox="0 0 16 16" fill="none" xmlns="http://www.w3.org/2000/svg">
<path fill-rule="evenodd" clip-rule="evenodd" d="M13.621 2.38103C13.0584 1.81862 12.2955 1.50267 11.5 1.50267C10.7045 1.50267 9.94161 1.81862 9.37903 2.38103L2.37903 9.38103C1.83242 9.94671 1.52986 10.7044 1.5365 11.491C1.54315 12.2776 1.85848 13.0301 2.41458 13.5865C2.97067 14.1429 3.72303 14.4585 4.50962 14.4656C5.29621 14.4726 6.05409 14.1704 6.62003 13.624H6.62103L7.11803 13.124C7.25901 12.9869 7.44824 12.9106 7.64493 12.9116C7.84163 12.9126 8.03004 12.9909 8.16959 13.1295C8.30913 13.2682 8.38863 13.4561 8.39096 13.6527C8.39328 13.8494 8.31825 14.0391 8.18203 14.181L7.68403 14.682L7.68203 14.684C6.83811 15.5279 5.69351 16.0021 4.50003 16.0021C3.30655 16.0021 2.16195 15.5279 1.31803 14.684C0.474109 13.8401 0 12.6955 0 11.502C0 10.3085 0.474109 9.16395 1.31803 8.32003L8.31803 1.32003C9.16142 0.475579 10.3057 0.000751036 11.4992 8.90167e-07C12.6927 -0.000749255 13.8376 0.47264 14.682 1.31603C15.5265 2.15942 16.0013 3.30372 16.0021 4.4972C16.0028 5.69068 15.5294 6.83558 14.686 7.68003L11.231 11.233C10.9898 11.4874 10.7 11.6909 10.3789 11.8315C10.0577 11.9721 9.71165 12.047 9.36109 12.0516C9.01053 12.0563 8.66259 11.9907 8.3378 11.8587C8.01301 11.7266 7.71796 11.5309 7.47005 11.283C7.22215 11.0351 7.02642 10.74 6.89441 10.4153C6.7624 10.0905 6.69678 9.74253 6.70144 9.39197C6.7061 9.04141 6.78093 8.69534 6.92153 8.37417C7.06212 8.05301 7.26562 7.76326 7.52003 7.52203L10.97 4.07103C11.0392 3.99936 11.1219 3.94219 11.2134 3.90284C11.3049 3.86349 11.4033 3.84275 11.5029 3.84184C11.6025 3.84093 11.7012 3.85986 11.7934 3.89753C11.8856 3.93519 11.9694 3.99085 12.0398 4.06123C12.1103 4.13162 12.166 4.21533 12.2038 4.30748C12.2415 4.39964 12.2605 4.49839 12.2597 4.59797C12.2589 4.69756 12.2382 4.79598 12.199 4.8875C12.1597 4.97902 12.1026 5.06181 12.031 5.13103L8.58103 8.58203C8.4763 8.68623 8.39312 8.81004 8.33624 8.94639C8.27936 9.08274 8.24989 9.22896 8.24952 9.3767C8.24915 9.52444 8.27788 9.6708 8.33407 9.80744C8.39027 9.94407 8.47282 10.0683 8.57703 10.173C8.68123 10.2778 8.80504 10.3609 8.94139 10.4178C9.07774 10.4747 9.22396 10.5042 9.3717 10.5045C9.51944 10.5049 9.6658 10.4762 9.80244 10.42C9.93907 10.3638 10.0633 10.2812 10.168 10.177L13.622 6.62403C14.1844 6.06145 14.5004 5.29852 14.5004 4.50303C14.5004 3.70754 14.1844 2.94461 13.622 2.38203" fill="#021615"/>
</svg>
