<svg width="14" height="9" viewBox="0 0 14 9" fill="none" xmlns="http://www.w3.org/2000/svg">
<path d="M7.08994 7.27726L12.9591 0.579294C13.0161 0.513843 13.084 0.462123 13.1588 0.427199C13.2336 0.392275 13.3137 0.374857 13.3945 0.375976C13.4753 0.377095 13.5551 0.396729 13.6291 0.433714C13.7031 0.470699 13.7699 0.524284 13.8255 0.591294C13.9393 0.728358 14.0019 0.910756 14 1.09973C13.998 1.2887 13.9316 1.46935 13.815 1.60329L7.51173 8.79625C7.45518 8.86132 7.38784 8.91285 7.31365 8.94783C7.23946 8.98282 7.15991 9.00055 7.07965 8.99999C6.9994 8.99943 6.92005 8.98059 6.84624 8.94458C6.77243 8.90857 6.70564 8.8561 6.64978 8.79025L0.178538 1.21929C0.0640094 1.08376 0 0.902704 0 0.714294C0 0.525883 0.0640094 0.344832 0.178538 0.209296C0.234816 0.143072 0.302152 0.0904251 0.376556 0.0544745C0.450961 0.0185239 0.530922 0 0.611704 0C0.692486 0 0.772447 0.0185239 0.846852 0.0544745C0.921256 0.0904251 0.988592 0.143072 1.04487 0.209296L7.08994 7.27726Z" fill="#D0D5D9"/>
</svg>
