<svg width="7" height="11" viewBox="0 0 7 11" fill="none" xmlns="http://www.w3.org/2000/svg">
<path d="M5.66009 5.42933L0.450562 0.817829C0.399655 0.773061 0.359429 0.719716 0.332266 0.660955C0.305103 0.602195 0.291555 0.539213 0.292425 0.475739C0.293295 0.412267 0.308566 0.349593 0.337332 0.291431C0.366099 0.233271 0.407776 0.180804 0.459895 0.13714C0.566501 0.0476799 0.708365 -0.00150493 0.855343 3.52486e-05C1.00232 0.00157638 1.14283 0.0537214 1.247 0.14539L6.84152 5.09792C6.89214 5.14236 6.93222 5.19527 6.95943 5.25356C6.98663 5.31186 7.00043 5.37436 6.99999 5.43741C6.99956 5.50047 6.98491 5.56282 6.9569 5.62081C6.92889 5.67881 6.88808 5.73128 6.83686 5.77517L0.948337 10.8597C0.842921 10.9497 0.702103 11 0.555562 11C0.40902 11 0.268202 10.9497 0.162786 10.8597C0.111278 10.8155 0.0703307 10.7626 0.0423691 10.7041C0.0144075 10.6457 -1.82343e-08 10.5828 -2.10088e-08 10.5194C-2.37832e-08 10.4559 0.0144075 10.3931 0.042369 10.3346C0.0703306 10.2762 0.111278 10.2232 0.162786 10.179L5.66009 5.42933Z" fill="#8E9796"/>
</svg>
