<svg width="369" height="73" viewBox="0 0 369 73" fill="none" xmlns="http://www.w3.org/2000/svg">
<rect width="369" height="73" rx="22" fill="#556B79"/>
<path d="M38.1768 42.333V28.5635H39.832V42.333H38.1768ZM28.5674 34.6426C28.5674 33.0508 28.8799 31.7617 29.5049 30.7754C30.1396 29.7793 31.0088 29.2812 32.1123 29.2812C33.2158 29.2812 34.0801 29.7793 34.7051 30.7754C35.3301 31.7617 35.6426 33.0508 35.6426 34.6426C35.6426 36.2441 35.3301 37.543 34.7051 38.5391C34.0898 39.5254 33.2256 40.0186 32.1123 40.0186C30.999 40.0186 30.1299 39.5254 29.5049 38.5391C28.8799 37.543 28.5674 36.2441 28.5674 34.6426ZM30.2227 34.6426C30.2227 35.7852 30.3789 36.7227 30.6914 37.4551C31.0039 38.1875 31.4775 38.5537 32.1123 38.5537C32.7471 38.5537 33.2158 38.1875 33.5186 37.4551C33.8311 36.7129 33.9873 35.7754 33.9873 34.6426C33.9873 33.9004 33.9287 33.2461 33.8115 32.6797C33.6943 32.1133 33.4893 31.6494 33.1963 31.2881C32.9131 30.917 32.5518 30.7314 32.1123 30.7314C31.7803 30.7314 31.4873 30.8389 31.2334 31.0537C30.9893 31.2588 30.7939 31.5469 30.6475 31.918C30.5107 32.2891 30.4033 32.7041 30.3252 33.1631C30.2568 33.6123 30.2227 34.1055 30.2227 34.6426ZM45.1898 41.9521V37.8799H46.8012V40.5459H54.9457V41.9521H45.1898ZM49.5111 33.6318V32.1816H52.9389V28.5635H54.5648V38.7148H52.9389V33.6318H49.5111ZM43.3002 36.8105V29.1787H44.8822V31.5957H48.559V29.1787H50.141V36.8105H43.3002ZM44.8822 35.4482H48.559V32.9434H44.8822V35.4482ZM59.1609 42.1279V38.2461H66.9832V37.0303H59.073V35.624H68.5945V39.4619H60.7723V40.7217H68.99V42.1279H59.1609ZM66.9539 35.0967V28.5635H68.5945V31.1416H70.3377V32.6064H68.5945V35.0967H66.9539ZM57.74 34.2324V29.1348H65.035V30.4531H59.3221V32.9287H59.5125C61.9246 32.9287 64.1268 32.792 66.1189 32.5186V33.7783C63.9314 34.0811 61.3631 34.2324 58.4139 34.2324H57.74ZM77.5377 42.1279V38.9346H85.8434V38.0264H77.4645V36.8252H87.4547V39.9746H79.149V40.9268H87.7623V42.1279H77.5377ZM82.8404 35.8877V34.8623H85.7994V28.5635H87.44V36.4297H85.7994V35.8877H82.8404ZM75.443 34.5547V33.3682H76.776C80.0084 33.3682 82.8063 33.1875 85.1695 32.8262V33.998C83.8512 34.1934 82.3814 34.335 80.7604 34.4229V36.3271H79.193V34.5107C78.3922 34.54 77.5816 34.5547 76.7613 34.5547H75.443ZM76.3951 30.6582C76.3951 30.0234 76.7711 29.5352 77.523 29.1934C78.275 28.8418 79.2174 28.666 80.3502 28.666C81.4732 28.666 82.4156 28.8418 83.1773 29.1934C83.9391 29.5352 84.3199 30.0234 84.3199 30.6582C84.3199 31.3027 83.9391 31.7959 83.1773 32.1377C82.4254 32.4795 81.483 32.6504 80.3502 32.6504C79.1979 32.6504 78.2506 32.4795 77.5084 32.1377C76.7662 31.7861 76.3951 31.293 76.3951 30.6582ZM78.0504 30.6582C78.0504 30.9316 78.2701 31.1367 78.7096 31.2734C79.149 31.4004 79.6959 31.4639 80.3502 31.4639C81.0045 31.4639 81.5514 31.4004 81.9908 31.2734C82.4303 31.1367 82.65 30.9316 82.65 30.6582C82.65 30.3945 82.4254 30.1943 81.9762 30.0576C81.5367 29.9111 80.9947 29.8379 80.3502 29.8379C79.7252 29.8379 79.1832 29.9111 78.7242 30.0576C78.275 30.1943 78.0504 30.3945 78.0504 30.6582ZM91.582 42.0986V35.9609H93.1787V37.5137H99.5654V35.9609H101.147V42.0986H91.582ZM93.1787 40.6484H99.5654V38.8467H93.1787V40.6484ZM89.6191 34.9648V33.6025H103.022V34.9648H89.6191ZM91.3037 30.5264V29.1348H101.338C101.338 29.7207 101.279 30.4824 101.162 31.4199C101.055 32.3477 100.928 33.1338 100.781 33.7783H99.1992C99.3457 33.2314 99.4678 32.6309 99.5654 31.9766C99.6729 31.3223 99.7266 30.8389 99.7266 30.5264H91.3037ZM114.767 42.333V28.5635H116.422V42.333H114.767ZM105.158 34.6426C105.158 33.0508 105.47 31.7617 106.095 30.7754C106.73 29.7793 107.599 29.2812 108.703 29.2812C109.806 29.2812 110.67 29.7793 111.295 30.7754C111.92 31.7617 112.233 33.0508 112.233 34.6426C112.233 36.2441 111.92 37.543 111.295 38.5391C110.68 39.5254 109.816 40.0186 108.703 40.0186C107.589 40.0186 106.72 39.5254 106.095 38.5391C105.47 37.543 105.158 36.2441 105.158 34.6426ZM106.813 34.6426C106.813 35.7852 106.969 36.7227 107.282 37.4551C107.594 38.1875 108.068 38.5537 108.703 38.5537C109.337 38.5537 109.806 38.1875 110.109 37.4551C110.421 36.7129 110.578 35.7754 110.578 34.6426C110.578 33.9004 110.519 33.2461 110.402 32.6797C110.285 32.1133 110.079 31.6494 109.787 31.2881C109.503 30.917 109.142 30.7314 108.703 30.7314C108.371 30.7314 108.078 30.8389 107.824 31.0537C107.579 31.2588 107.384 31.5469 107.238 31.918C107.101 32.2891 106.994 32.7041 106.915 33.1631C106.847 33.6123 106.813 34.1055 106.813 34.6426ZM124.296 42.1133V38.5684H132.323V37.499H124.208V36.1953H133.935V39.7109H125.907V40.8096H134.257V42.1133H124.296ZM122.363 35.1699V33.8662H135.766V35.1699H122.363ZM124.325 32.8115V28.7832H133.92V30.0723H125.937V31.5371H133.993V32.8115H124.325ZM144.053 35.3457V33.7783H147.584V28.5635H149.224V42.333H147.584V35.3457H144.053ZM137.813 34.6719C137.813 33.0703 138.121 31.7715 138.736 30.7754C139.351 29.7695 140.211 29.2666 141.314 29.2666C142.408 29.2666 143.262 29.7646 143.878 30.7607C144.503 31.7568 144.815 33.0605 144.815 34.6719C144.815 36.2832 144.507 37.5869 143.892 38.583C143.277 39.5791 142.418 40.0771 141.314 40.0771C140.211 40.0771 139.351 39.5791 138.736 38.583C138.121 37.5869 137.813 36.2832 137.813 34.6719ZM139.468 34.6719C139.468 35.4141 139.527 36.0732 139.644 36.6494C139.771 37.2256 139.976 37.6992 140.259 38.0703C140.543 38.4414 140.894 38.627 141.314 38.627C141.939 38.627 142.403 38.2559 142.706 37.5137C143.008 36.7617 143.16 35.8145 143.16 34.6719C143.16 33.5098 143.008 32.5625 142.706 31.8301C142.413 31.0977 141.949 30.7314 141.314 30.7314C140.679 30.7314 140.211 31.1025 139.908 31.8447C139.615 32.5771 139.468 33.5195 139.468 34.6719ZM153.22 41.249C153.845 40.917 154.396 40.4678 154.875 39.9014C155.363 39.3252 155.607 38.7979 155.607 38.3193V37.8213H157.204V38.2021C157.204 38.6318 157.38 39.0859 157.731 39.5645C158.093 40.0332 158.469 40.4043 158.859 40.6777C159.26 40.4043 159.636 40.0332 159.987 39.5645C160.349 39.0859 160.529 38.6318 160.529 38.2021V37.8213H162.126V38.3047C162.126 38.8027 162.37 39.335 162.858 39.9014C163.347 40.4678 163.898 40.917 164.514 41.249L163.62 42.2598C163.19 42.0156 162.761 41.6836 162.331 41.2637C161.901 40.8535 161.569 40.4531 161.335 40.0625C161.11 40.4336 160.749 40.8389 160.251 41.2783C159.763 41.7275 159.299 42.0498 158.859 42.2451C158.449 42.0693 157.995 41.7568 157.497 41.3076C156.999 40.8584 156.638 40.4482 156.413 40.0771C156.179 40.4482 155.856 40.8389 155.446 41.249C155.046 41.6592 154.621 41.9961 154.172 42.2598L153.22 41.249ZM151.916 37.0156V35.668H153.337C156.237 35.668 158.942 35.4873 161.452 35.126V36.4443C160.524 36.5908 159.289 36.7227 157.746 36.8398C156.213 36.957 154.738 37.0156 153.322 37.0156H151.916ZM155.842 36.1953V33.5879H157.409V36.1953H155.842ZM161.818 37.6895V28.5635H163.444V32.709H165.231V34.1592H163.444V37.6895H161.818ZM152.824 31.4492C152.824 30.6387 153.186 29.9941 153.908 29.5156C154.631 29.0371 155.544 28.7979 156.647 28.7979C157.741 28.7979 158.649 29.0371 159.372 29.5156C160.104 29.9941 160.471 30.6387 160.471 31.4492C160.471 32.2695 160.109 32.9189 159.387 33.3975C158.664 33.876 157.751 34.1152 156.647 34.1152C155.534 34.1152 154.616 33.876 153.894 33.3975C153.181 32.9189 152.824 32.2695 152.824 31.4492ZM154.479 31.4492C154.479 31.8789 154.685 32.2256 155.095 32.4893C155.515 32.7529 156.032 32.8848 156.647 32.8848C157.272 32.8848 157.79 32.7529 158.2 32.4893C158.62 32.2256 158.83 31.8789 158.83 31.4492C158.83 31.0293 158.62 30.6875 158.2 30.4238C157.78 30.1602 157.263 30.0283 156.647 30.0283C156.042 30.0283 155.529 30.1602 155.109 30.4238C154.689 30.6875 154.479 31.0293 154.479 31.4492ZM168.187 42.1279V36.6787H169.784V38.0117H176.141V36.6787H177.723V42.1279H168.187ZM169.784 40.7949H176.141V39.2422H169.784V40.7949ZM166.209 35.8291V34.4814H179.613V35.8291H166.209ZM167.015 32.46C167.816 32.2451 168.582 31.9766 169.315 31.6543C170.047 31.3223 170.702 30.9072 171.278 30.4092C171.854 29.9111 172.142 29.4082 172.142 28.9004V28.5781H173.768V28.915C173.768 29.2861 173.934 29.6621 174.266 30.043C174.608 30.4238 175.047 30.7656 175.584 31.0684C176.121 31.3711 176.668 31.6396 177.225 31.874C177.782 32.1084 178.333 32.2988 178.88 32.4453L178.133 33.6465C177.186 33.4023 176.204 33.0215 175.189 32.5039C174.183 31.9766 173.441 31.415 172.962 30.8193C172.503 31.415 171.766 31.9766 170.75 32.5039C169.745 33.0312 168.744 33.4219 167.747 33.6758L167.015 32.46ZM191.167 42.333V28.5635H192.822V42.333H191.167ZM182.29 39.1689V29.6475H183.901V37.7188H184.311C186.108 37.7188 188.047 37.5674 190.127 37.2646V38.627C189.004 38.8223 187.729 38.9639 186.304 39.0518C184.887 39.1299 183.769 39.1689 182.949 39.1689H182.29ZM205.065 42.333V28.5635H206.705V34.0273H208.903V35.6094H206.705V42.333H205.065ZM196.642 39.2861V29.8525H203.029V31.2588H198.238V37.8652H198.561C200.426 37.8652 202.286 37.7432 204.142 37.499V38.8174C201.993 39.1299 199.669 39.2861 197.169 39.2861H196.642Z" fill="white"/>
<circle cx="327.5" cy="36.5" r="11.5" fill="white"/>
<path d="M322.732 36.8727L326.909 40.9494L332.727 32.6667" stroke="#556B79" stroke-width="3" stroke-linecap="round"/>
</svg>
