<svg width="11" height="11" viewBox="0 0 11 11" fill="none" xmlns="http://www.w3.org/2000/svg">
<path fill-rule="evenodd" clip-rule="evenodd" d="M6.5912 0.2981C6.63905 0.39105 6.65115 0.5104 6.6748 0.7491C6.7199 1.2001 6.74245 1.4256 6.83705 1.5499C6.89599 1.62708 6.97431 1.68727 7.06406 1.72437C7.1538 1.76146 7.25177 1.77414 7.348 1.7611C7.502 1.74075 7.678 1.5972 8.0289 1.3101C8.21425 1.15775 8.3072 1.08185 8.40675 1.04995C8.53354 1.00944 8.67072 1.01627 8.79285 1.0692C8.8891 1.111 8.97435 1.1957 9.1432 1.3651L9.6349 1.8568C9.8043 2.0262 9.889 2.1109 9.9308 2.20715C9.98373 2.32928 9.99056 2.46646 9.95005 2.59325C9.91815 2.6928 9.84225 2.78575 9.69045 2.9711C9.4028 3.32255 9.25925 3.498 9.23835 3.65255C9.22548 3.74874 9.23828 3.84663 9.27547 3.93627C9.31266 4.02592 9.37291 4.10412 9.4501 4.16295C9.57385 4.25755 9.7999 4.2801 10.2515 4.3252C10.4896 4.34885 10.6089 4.36095 10.7024 4.4088C10.8204 4.46996 10.9122 4.57175 10.961 4.69535C11 4.7927 11 4.9126 11 5.1524V5.8476C11 6.0874 11 6.2073 10.9615 6.3041C10.9126 6.42809 10.8204 6.53012 10.7019 6.5912C10.609 6.63905 10.4896 6.65115 10.2509 6.6748C9.7999 6.7199 9.5744 6.74245 9.4501 6.83705C9.37292 6.89599 9.31273 6.97431 9.27563 7.06406C9.23854 7.1538 9.22586 7.25177 9.2389 7.348C9.2598 7.502 9.40335 7.678 9.69045 8.0289C9.84225 8.21425 9.91815 8.30665 9.95005 8.40675C9.99056 8.53354 9.98373 8.67072 9.9308 8.79285C9.889 8.8891 9.8043 8.9738 9.6349 9.1432L9.1432 9.63435C8.9738 9.8043 8.8891 9.889 8.79285 9.93025C8.67072 9.98318 8.53354 9.99002 8.40675 9.9495C8.3072 9.9176 8.21425 9.8417 8.0289 9.6899C7.67745 9.4028 7.502 9.25925 7.348 9.2389C7.25177 9.22586 7.1538 9.23854 7.06406 9.27563C6.97431 9.31273 6.89599 9.37292 6.83705 9.4501C6.74245 9.57385 6.7199 9.79935 6.6748 10.2509C6.65115 10.4896 6.63905 10.609 6.5912 10.7019C6.53025 10.8203 6.42844 10.9125 6.30465 10.9615C6.2073 11 6.0874 11 5.8476 11H5.1524C4.9126 11 4.7927 11 4.6959 10.9615C4.57191 10.9126 4.46988 10.8204 4.4088 10.7019C4.36095 10.609 4.34885 10.4896 4.3252 10.2509C4.2801 9.7999 4.25755 9.5744 4.16295 9.4501C4.10406 9.37301 4.02583 9.31287 3.93619 9.27578C3.84655 9.23869 3.74869 9.22596 3.65255 9.2389C3.498 9.25925 3.32255 9.4028 2.9711 9.6899C2.78575 9.84225 2.6928 9.91815 2.59325 9.95005C2.46646 9.99056 2.32928 9.98373 2.20715 9.9308C2.1109 9.889 2.02565 9.8043 1.8568 9.6349L1.3651 9.1432C1.1957 8.9738 1.111 8.8891 1.0692 8.79285C1.01627 8.67072 1.00944 8.53354 1.04995 8.40675C1.08185 8.3072 1.15775 8.21425 1.30955 8.0289C1.5972 7.67745 1.74075 7.502 1.7611 7.34745C1.77404 7.25131 1.76131 7.15345 1.72422 7.06381C1.68713 6.97417 1.62699 6.89594 1.5499 6.83705C1.42615 6.74245 1.2001 6.7199 0.74855 6.6748C0.5104 6.65115 0.39105 6.63905 0.29755 6.5912C0.179601 6.53004 0.0877778 6.42825 0.0390501 6.30465C5.32717e-08 6.2073 0 6.0874 0 5.8476V5.1524C0 4.9126 -3.68804e-08 4.7927 0.0385 4.6959C0.0873879 4.57191 0.179638 4.46988 0.2981 4.4088C0.39105 4.36095 0.5104 4.34885 0.7491 4.3252C1.2001 4.2801 1.42615 4.25755 1.5499 4.16295C1.62709 4.10412 1.68734 4.02592 1.72453 3.93627C1.76172 3.84663 1.77452 3.74874 1.76165 3.65255C1.74075 3.498 1.59665 3.32255 1.30955 2.97055C1.15775 2.7852 1.08185 2.6928 1.04995 2.5927C1.00944 2.46591 1.01627 2.32873 1.0692 2.2066C1.111 2.1109 1.1957 2.02565 1.3651 1.85625L1.8568 1.3651C2.0262 1.1957 2.1109 1.11045 2.20715 1.0692C2.32928 1.01627 2.46646 1.00944 2.59325 1.04995C2.6928 1.08185 2.78575 1.15775 2.9711 1.30955C3.32255 1.59665 3.498 1.7402 3.652 1.7611C3.74837 1.77418 3.84648 1.76147 3.93633 1.72427C4.02619 1.68707 4.10457 1.62672 4.1635 1.54935C4.257 1.4256 4.2801 1.2001 4.3252 0.74855C4.34885 0.5104 4.36095 0.39105 4.4088 0.29755C4.46985 0.179394 4.57165 0.0873639 4.69535 0.0385C4.7927 -3.68804e-08 4.9126 0 5.1524 0H5.8476C6.0874 0 6.2073 -3.68804e-08 6.3041 0.0385C6.42809 0.0873879 6.53012 0.179638 6.5912 0.2981ZM5.5 7.7C6.08348 7.7 6.64305 7.46821 7.05563 7.05563C7.46821 6.64305 7.7 6.08348 7.7 5.5C7.7 4.91652 7.46821 4.35695 7.05563 3.94437C6.64305 3.53179 6.08348 3.3 5.5 3.3C4.91652 3.3 4.35695 3.53179 3.94437 3.94437C3.53179 4.35695 3.3 4.91652 3.3 5.5C3.3 6.08348 3.53179 6.64305 3.94437 7.05563C4.35695 7.46821 4.91652 7.7 5.5 7.7Z" fill="#8E9796"/>
</svg>
