<svg width="7" height="13" viewBox="0 0 7 13" fill="none" xmlns="http://www.w3.org/2000/svg">
<path d="M5.66009 6.41648L0.450562 0.966526C0.399655 0.913618 0.359429 0.850574 0.332266 0.781129C0.305102 0.711684 0.291555 0.637252 0.292425 0.562238C0.293295 0.487225 0.308566 0.413156 0.337332 0.344419C0.366099 0.275683 0.407776 0.213678 0.459895 0.162075C0.566501 0.0563497 0.708365 -0.00177863 0.855343 4.19243e-05C1.00232 0.00186248 1.14283 0.0634889 1.247 0.171824L6.84152 6.02482C6.89214 6.07733 6.93222 6.13987 6.95943 6.20876C6.98663 6.27765 7.00043 6.35151 6.99999 6.42603C6.99956 6.50056 6.98491 6.57424 6.9569 6.64278C6.92889 6.71132 6.88808 6.77334 6.83686 6.82521L0.948337 12.8342C0.842921 12.9406 0.702103 13 0.555562 13C0.40902 13 0.268202 12.9406 0.162786 12.8342C0.111278 12.782 0.0703307 12.7194 0.0423691 12.6503C0.0144075 12.5813 -2.15497e-08 12.507 -2.48285e-08 12.432C-2.81074e-08 12.357 0.0144074 12.2827 0.042369 12.2136C0.0703306 12.1445 0.111278 12.082 0.162786 12.0298L5.66009 6.41648Z" fill="#677079"/>
</svg>
