<svg width="389" height="21" viewBox="0 0 389 21" fill="none" xmlns="http://www.w3.org/2000/svg">
<path d="M106.5 20.1779C82.8154 20.1779 25.6667 16.6779 0 13.6779C17 13.6779 37 13.6777 55.5 12.6777C74 11.6777 108 9.17762 124.5 6.67773C141 4.17785 189 1.17778 212.5 0.177785C236 -0.822215 293.5 2.67778 303 3.67778C307.183 4.11806 312.431 4.46396 317.765 4.66946C319.13 4.6332 320.883 4.6905 322.94 4.82336C327.947 4.92733 332.746 4.89188 336.5 4.67785C343.7 4.2674 378.167 4.50683 394.5 4.67785C395 7.67785 395 13.6779 391 13.6779C386.519 13.6779 341.874 6.0468 322.94 4.82336C321.228 4.78783 319.492 4.736 317.765 4.66946C317.675 4.67185 317.587 4.67465 317.5 4.67785C304 5.17785 249.82 4.57416 219 10.1777C191.5 15.1777 139.5 20.1779 106.5 20.1779Z" fill="url(#paint0_linear_164_233)"/>
<defs>
<linearGradient id="paint0_linear_164_233" x1="0" y1="10.0889" x2="394.727" y2="10.0889" gradientUnits="userSpaceOnUse">
<stop stop-color="#2BB7AC"/>
<stop offset="1" stop-color="#657B90"/>
</linearGradient>
</defs>
</svg>
