<svg width="72" height="20" viewBox="0 0 72 20" fill="none" xmlns="http://www.w3.org/2000/svg">
<path d="M21.6598 14.0254V12.7939H26.8268V10.3945H28.2741V12.7939H33.2761V14.0254H21.6598ZM23.361 10.9404V6.85254H30.2673V5.16406H23.2848V3.93262H31.6637V8.0332H24.7575V9.72168H31.8542V10.9404H23.361ZM34.3267 13.6191V12.3877H45.9429V13.6191H34.3267ZM35.8629 5.69727V4.44043H44.3687C44.3687 6.90332 44.1275 9.21387 43.6451 11.3721H42.2359C42.4644 10.4157 42.6421 9.40853 42.7691 8.35059C42.8961 7.29264 42.9595 6.4082 42.9595 5.69727H35.8629ZM55.4995 15.1553V3.22168H56.934V8.02051H58.7875V9.3916H56.934V15.1553H55.4995ZM47.5395 8.49023C47.5395 7.11068 47.8061 5.99349 48.3393 5.13867C48.8725 4.27539 49.6131 3.84375 50.561 3.84375C51.5004 3.84375 52.2368 4.27539 52.77 5.13867C53.3032 5.99349 53.5698 7.11068 53.5698 8.49023C53.5698 9.87826 53.3032 11.0039 52.77 11.8672C52.2452 12.722 51.5089 13.1494 50.561 13.1494C49.6046 13.1494 48.8598 12.722 48.3266 11.8672C47.8019 11.0039 47.5395 9.87826 47.5395 8.49023ZM48.9741 8.49023C48.9741 9.48893 49.1052 10.3057 49.3676 10.9404C49.63 11.5667 50.0278 11.8799 50.561 11.8799C51.0942 11.8799 51.4877 11.5625 51.7416 10.9277C52.004 10.293 52.1352 9.48047 52.1352 8.49023C52.1352 7.49154 52.0082 6.67904 51.7543 6.05273C51.5004 5.41797 51.1026 5.10059 50.561 5.10059C50.0193 5.10059 49.6173 5.4222 49.3549 6.06543C49.101 6.7002 48.9741 7.50846 48.9741 8.49023ZM60.6253 14.0254C61.2178 13.9069 61.8187 13.7334 62.428 13.5049C63.0459 13.2679 63.596 12.9717 64.0784 12.6162C64.5609 12.2607 64.8021 11.9053 64.8021 11.5498V11.2705H66.1986V11.5371C66.1986 11.9095 66.444 12.2777 66.9349 12.6416C67.4258 12.9971 67.9759 13.2891 68.5853 13.5176C69.1946 13.7376 69.7998 13.9069 70.4007 14.0254L69.7786 15.0918C68.9746 14.931 68.1536 14.6475 67.3157 14.2412C66.4863 13.8434 65.8854 13.416 65.513 12.959C65.1321 13.416 64.5355 13.8392 63.723 14.2285C62.9105 14.6263 62.0853 14.9141 61.2474 15.0918L60.6253 14.0254ZM59.6605 10.0898V8.94727H71.2767V10.0898H66.1732V11.042H64.8021V10.0898H59.6605ZM61.0062 5.5957C61.0062 4.8763 61.4336 4.32617 62.2884 3.94531C63.1517 3.55599 64.2223 3.36133 65.5003 3.36133C66.3043 3.36133 67.0364 3.44173 67.6966 3.60254C68.3652 3.75488 68.9154 4.00456 69.347 4.35156C69.7786 4.69857 69.9945 5.11328 69.9945 5.5957C69.9945 6.3151 69.5586 6.86947 68.6868 7.25879C67.8236 7.63965 66.7614 7.83008 65.5003 7.83008C64.2139 7.83008 63.1432 7.63965 62.2884 7.25879C61.4336 6.86947 61.0062 6.3151 61.0062 5.5957ZM62.555 5.5957C62.555 5.97656 62.8428 6.26432 63.4183 6.45898C63.9938 6.64518 64.6878 6.73828 65.5003 6.73828C66.3297 6.73828 67.028 6.64095 67.595 6.44629C68.1621 6.25163 68.4456 5.9681 68.4456 5.5957C68.4456 5.22331 68.1579 4.93978 67.5823 4.74512C67.0068 4.55046 66.3128 4.45312 65.5003 4.45312C64.7132 4.45312 64.0234 4.55046 63.431 4.74512C62.847 4.93978 62.555 5.22331 62.555 5.5957Z" fill="#021615"/>
<path d="M12 5.11111L10.872 6.20778L12.936 8.22222H4.8V9.77778H12.936L10.872 11.7844L12 12.8889L16 9M1.6 3.55556H8V2H1.6C0.72 2 0 2.7 0 3.55556V14.4444C0 15.3 0.72 16 1.6 16H8V14.4444H1.6V3.55556Z" fill="#021615"/>
</svg>
