<svg width="235" height="17" viewBox="0 0 235 17" fill="none" xmlns="http://www.w3.org/2000/svg">
<path d="M0.924 4.202C0.924 3.054 1.61 1.78 2.156 1.318H3.066C2.604 1.92 2.338 2.48 2.24 3.18C2.702 3.292 3.038 3.698 3.038 4.202C3.038 4.79 2.576 5.266 1.988 5.266C1.4 5.266 0.924 4.79 0.924 4.202ZM5.7995 2.69V1.36H7.7595V2.69H10.3775V3.95H9.0055C9.6215 4.692 10.0135 5.742 10.0275 6.96C10.0135 9.326 8.6835 11.09 6.7795 11.09C4.8195 11.104 3.5175 9.326 3.5175 6.96C3.5175 5.742 3.9095 4.692 4.5255 3.95H3.2375V2.69H5.7995ZM6.7795 3.978C6.0095 3.978 5.3935 5.154 5.4075 6.96C5.3935 8.682 5.9955 9.83 6.7655 9.83C7.5495 9.83 8.1375 8.71 8.1375 6.96C8.1375 5.07 7.5775 3.978 6.7795 3.978ZM13.5275 6.47V14.03H11.6375V1.36H13.5275V5.21H15.3475V6.47H13.5275ZM17.789 9.13H20.967C21.821 9.13 22.465 9.172 23.263 8.752V1.36H25.153V5.21H26.973V6.47H25.153V14.03H23.263V10.012C22.605 10.306 21.723 10.39 20.925 10.39H16.739C15.913 10.39 15.283 9.592 15.283 8.654V1.92H17.173V8.612C17.173 8.934 17.383 9.13 17.789 9.13ZM29.2744 2.382C29.2744 3.53 28.5884 4.804 28.0424 5.266H27.1324C27.5944 4.664 27.8604 4.104 27.9584 3.404C27.4964 3.292 27.1604 2.886 27.1604 2.382C27.1604 1.794 27.6224 1.318 28.2104 1.318C28.7984 1.318 29.2744 1.794 29.2744 2.382ZM39.8899 9.41H36.4179V11.23H41.1359V12.49H29.7959V11.23H34.5139V9.41H32.6659C31.8959 9.41 31.2099 8.612 31.2099 7.702V5.098H37.8599V3.32H31.2099V2.06H39.7499V5.182C39.7499 5.798 39.3159 6.358 38.8259 6.358H33.0999V7.646C33.0999 7.954 33.3099 8.15 33.6739 8.15H39.8899V9.41ZM49.0067 7.296C49.2587 6.582 49.3287 5.938 49.3287 4.79V3.04H44.8487V1.78H51.2187V4.762C51.2187 6.022 51.0647 6.694 50.8407 7.296H51.2187C51.7087 7.296 52.1147 7.31 52.6887 6.974V1.36H54.5787V4.23H56.3987V5.49H54.5787V10.11H52.6887V8.29C52.3247 8.458 51.7507 8.556 51.3167 8.556H44.2887V7.296H46.2767V4.482H48.1527V7.296H49.0067ZM48.7687 12.77H54.5787V14.03H47.6627C46.8927 14.03 46.3187 13.246 46.3187 12.35V9.55H48.2087V12.21C48.2087 12.546 48.4327 12.77 48.7687 12.77ZM57.8041 10.53C57.0201 10.53 56.3341 9.732 56.3341 8.836V5.56H60.5341V3.32H56.3341V2.06H62.4241V5.644C62.4241 6.26 61.9901 6.82 61.5001 6.82H58.2241V8.766C58.2241 9.074 58.4341 9.27 58.7981 9.27H61.8641C62.8721 9.27 63.6841 9.284 64.4541 8.836V1.36H66.3441V14.03H64.4541V10.082C63.7821 10.432 62.8161 10.53 61.8921 10.53H57.8041ZM70.1016 2.69V1.36H72.0616V2.69H74.6796V3.95H73.3076C73.9236 4.692 74.3156 5.742 74.3296 6.96C74.3156 9.326 72.9856 11.09 71.0816 11.09C69.1216 11.104 67.8196 9.326 67.8196 6.96C67.8196 5.742 68.2116 4.692 68.8276 3.95H67.5396V2.69H70.1016ZM71.0816 3.978C70.3116 3.978 69.6956 5.154 69.7096 6.96C69.6956 8.682 70.2976 9.83 71.0676 9.83C71.8516 9.83 72.4396 8.71 72.4396 6.96C72.4396 5.07 71.8796 3.978 71.0816 3.978ZM77.8296 6.47V14.03H75.9396V1.36H77.8296V5.21H79.6496V6.47H77.8296ZM89.4691 6.82H82.3991C81.5591 6.82 80.9291 6.022 80.9291 5.07V1.78H82.8191V5.042C82.8191 5.364 83.0291 5.56 83.4491 5.56H89.4691V6.82ZM79.5151 8.15H90.8551V9.41H82.8051V12.21C82.8051 12.546 83.0291 12.77 83.3651 12.77H89.4551V14.03H82.2591C81.4891 14.03 80.9151 13.246 80.9151 12.364V9.41H79.5151V8.15ZM100.042 1.15C101.764 1.15 103.612 2.494 103.612 4.594C103.612 6.722 101.722 8.01 100.042 8.01C98.3338 8.01 96.4858 6.694 96.4858 4.594C96.4858 2.522 98.2638 1.15 100.042 1.15ZM100.042 2.41C99.2158 2.41 98.3758 3.25 98.3758 4.594C98.3758 5.798 99.1878 6.75 100.028 6.75C100.854 6.75 101.722 5.798 101.722 4.594C101.722 3.222 100.868 2.41 100.042 2.41ZM94.3578 8.78H105.698V10.04H103.22V14.03H101.316V10.04H98.7398V14.03H96.8358V10.04H94.3578V8.78ZM108.195 2.41V1.08H110.155V2.41H112.773V3.67H111.513C111.975 4.174 112.283 4.86 112.283 5.7C112.283 7.66 110.743 8.794 109.175 8.78C107.551 8.794 106.053 7.66 106.053 5.7C106.053 4.874 106.361 4.188 106.837 3.67H105.633V2.41H108.195ZM109.175 3.768C108.503 3.782 107.943 4.566 107.943 5.7C107.943 6.75 108.419 7.534 109.161 7.52C109.945 7.52 110.379 6.61 110.393 5.7C110.379 4.566 109.875 3.782 109.175 3.768ZM115.923 5.49V8.99H114.033V1.36H115.923V4.23H117.743V5.49H115.923ZM115.923 14.17H114.033V10.88H107.663V9.62H115.923V14.17ZM124.396 1.57V2.326C124.396 4.356 125.11 5.854 126.426 6.316V7.632C124.886 7.422 123.584 6.26 123.388 5.616C123.192 6.26 121.848 7.436 120.406 7.632V6.316C121.68 5.868 122.422 4.384 122.436 2.34V1.57H124.396ZM128.876 4.86V7.8C129.198 7.884 129.492 7.996 129.786 8.136V4.86H128.876ZM128.078 8.976C127.308 8.976 126.426 9.676 126.426 11.034C126.426 12.28 127.252 13.05 128.064 13.05C128.848 13.05 129.716 12.308 129.716 11.034C129.702 9.648 128.876 8.976 128.078 8.976ZM131.606 11.048C131.592 13.064 129.814 14.31 128.078 14.31C126.188 14.31 124.522 13.064 124.536 11.034C124.522 9.494 125.642 8.29 127.056 7.87V1.36H128.876V3.6H129.786V1.36H131.606V11.048ZM134.817 2.004V0.954H136.777V2.004H139.325V3.264H138.457C138.751 3.6 138.933 4.02 138.933 4.524C138.933 5.728 137.897 6.624 136.707 6.918V7.338H139.031C139.521 7.338 139.927 7.352 140.501 7.016V1.36H142.391V3.81H144.211V5.07H142.391V8.85H140.501V8.332C140.137 8.5 139.563 8.598 139.129 8.598H132.101V7.338H134.831V6.904C133.627 6.596 132.647 5.7 132.647 4.524C132.647 4.034 132.843 3.614 133.137 3.264H132.325V2.004H134.817ZM135.797 3.292C135.125 3.292 134.537 3.796 134.537 4.524C134.537 5.21 135.097 5.7 135.783 5.7C136.413 5.7 137.043 5.238 137.043 4.524C137.043 3.824 136.441 3.292 135.797 3.292ZM142.545 14.31H135.601C134.831 14.31 134.145 13.512 134.145 12.602V11.188H140.501V10.6H134.145V9.34H142.405V11.258C142.405 11.888 141.971 12.448 141.481 12.448H136.035V12.574C136.035 12.854 136.245 13.05 136.609 13.05H142.545V14.31ZM146.919 13.078C146.919 14.338 146.233 15.738 145.645 16.284H144.735C145.225 15.626 145.505 14.982 145.603 14.184C145.071 14.058 144.749 13.624 144.749 13.078C144.749 12.448 145.253 11.944 145.841 11.944C146.429 11.944 146.919 12.448 146.919 13.078ZM155.579 1.36V1.682C155.579 3.236 156.531 4.258 158.029 4.51V5.77C156.447 5.7 154.921 4.818 154.557 4.104C154.207 4.804 152.751 5.714 151.169 5.77V4.51C152.653 4.272 153.619 3.222 153.619 1.654V1.36H155.579ZM161.179 1.36V8.78H159.289V7.38C158.925 7.548 158.351 7.646 157.917 7.646H155.621V8.78H153.717V7.646H150.749V6.386H157.763C158.309 6.386 158.715 6.4 159.289 6.064V1.36H161.179ZM154.823 10.53H159.303V9.27H161.193V14.17H154.375C153.619 14.17 152.933 13.4 152.933 12.448V9.27H154.823V10.53ZM154.823 11.79V12.322C154.823 12.714 155.061 12.91 155.369 12.91H159.303V11.79H154.823ZM170.229 10.95C170.691 9.914 170.789 8.64 170.789 7.282V3.32H164.139V2.06H172.679V7.268C172.679 8.794 172.469 10.04 172.049 10.95H174.065V12.21H162.725V10.95H166.603V6.12H168.507V10.95H170.229ZM184.218 2.06V3.306C184.218 5.546 185.548 7.24 187.648 7.548V8.864C185.38 8.724 183.532 7.31 183.196 6.414C182.846 7.338 180.956 8.71 178.828 8.878V7.562C180.802 7.226 182.258 5.56 182.258 3.278V2.06H184.218ZM177.568 10.95H188.908V12.21H177.568V10.95ZM191.153 3.32V8.584C191.153 8.948 191.363 9.13 191.671 9.13H193.463V3.32H191.153ZM199.133 6.47V14.03H197.243V1.36H199.133V5.21H200.953V6.47H199.133ZM195.353 2.06V10.39H190.789C189.949 10.39 189.263 9.634 189.263 8.696V2.06H195.353ZM200.819 11.09H212.159V12.35H200.819V11.09ZM202.233 2.06H210.633V3.32H204.123V4.986H210.479V6.246H204.123V7.492C204.123 7.814 204.333 8.01 204.753 8.01H210.773V9.27H203.703C202.863 9.27 202.233 8.472 202.233 7.534V2.06ZM214.656 2.69V1.36H216.616V2.69H219.234V3.95H217.862C218.478 4.692 218.87 5.742 218.884 6.96C218.87 9.326 217.54 11.09 215.636 11.09C213.676 11.104 212.374 9.326 212.374 6.96C212.374 5.742 212.766 4.692 213.382 3.95H212.094V2.69H214.656ZM215.636 3.978C214.866 3.978 214.25 5.154 214.264 6.96C214.25 8.682 214.852 9.83 215.622 9.83C216.406 9.83 216.994 8.71 216.994 6.96C216.994 5.07 216.434 3.978 215.636 3.978ZM222.384 6.47V14.03H220.494V1.36H222.384V5.21H224.204V6.47H222.384ZM227.149 3.32H223.999V2.06H229.109V3.474C229.109 4.132 229.039 4.79 228.899 5.406H230.439V1.36H232.259V14.03H230.439V6.666H228.507C227.723 8.654 226.155 10.166 223.929 10.586V9.312C225.945 8.5 227.135 6.288 227.149 3.838V3.32ZM234.849 1.36V14.03H233.029V1.36H234.849Z" fill="#021615"/>
</svg>
