<svg width="266" height="57" viewBox="0 0 266 57" fill="none" xmlns="http://www.w3.org/2000/svg">
<path d="M220.967 0V56.7002H210.88V11.8804L201.199 56.7002H190.774L181.296 11.8804H181.093V56.7002H171.006V0H186.847L196.257 40.2577H196.325L205.397 0H220.967Z" fill="url(#paint0_linear_164_181)"/>
<path d="M266 46.173V56.7002H220.674V46.173L250.217 10.5951H226.604V0H266V9.91619L237.562 46.173H266Z" fill="#009B98"/>
<path d="M135.189 56.7727C128.536 55.6608 123.057 51.5311 123.057 43.4485C123.057 35.885 127.591 31.2365 137.5 30.1242H148.501C148.501 17.0246 137.549 18.7582 127.679 21.4345V15.0621C132.529 13.3242 136.005 12.745 141.994 12.745C147.321 13.3243 154.831 13.9036 155.986 24.9106V42.8692C155.986 45.9836 155.986 51.3411 155.986 55.6141C148.501 56.7727 138.655 57.352 135.189 56.7727ZM148.501 37.0761C143.182 37.0761 131.145 35.6656 131.145 43.4485C131.145 47.6752 134.034 49.2417 136.344 49.821C138.655 50.4003 145.01 50.4003 148.501 49.821C148.501 49.1226 148.501 47.7084 148.501 44.0279C148.501 44.0279 148.501 38.814 148.501 37.0761Z" fill="#021615"/>
<path d="M58.356 56.7726C51.7031 55.6606 46.2245 51.531 46.2245 43.4484C46.2245 35.8849 50.7582 31.2363 60.6668 30.1241H71.6683C71.6683 17.0244 60.7155 18.758 50.846 21.4344V15.0619C55.6963 13.324 59.1717 12.7449 65.1612 12.7449C70.4875 13.3242 77.9975 13.9035 79.1529 24.9104V42.8691C79.1529 45.9835 79.1529 51.3409 79.1529 55.6139C71.6683 56.7726 61.8221 57.3519 58.356 56.7726ZM71.6683 37.076C66.3493 37.076 54.3122 35.6655 54.3122 43.4484C54.3122 47.6751 57.2006 49.2415 59.5114 49.8208C61.8221 50.4001 68.1767 50.4001 71.6683 49.8208C71.6683 49.1224 71.6683 47.7083 71.6683 44.0277C71.6683 44.0277 71.6683 38.8139 71.6683 37.076Z" fill="#021615"/>
<path d="M88.396 13.4379C88.396 13.4379 90.1291 12.6798 96.4837 11.9003C102.838 11.1208 105.149 11.8999 108.615 13.0589C115.548 15.7551 117.858 19.9595 117.858 30.6374V55.5479H110.348V32.1902C110.348 28.9928 109.937 25.1311 108.615 23.1063C106.933 20.5293 102.552 19.8103 99.3722 19.8103C96.192 19.8103 91.8639 20.2098 91.8639 20.2098C91.8639 23.1063 91.9378 28.9006 91.9378 32.1902L91.8639 55.5479H84.3522V14.9961L88.396 13.4379Z" fill="#021615"/>
<path d="M40.4476 0V55.9662H32.0272V30.1242H7.81963V55.9662H0V0H7.81963V21.8285H32.0272V0H40.4476Z" fill="#021615"/>
<defs>
<linearGradient id="paint0_linear_164_181" x1="195.986" y1="0" x2="195.986" y2="56.7002" gradientUnits="userSpaceOnUse">
<stop stop-color="#00807F"/>
<stop offset="1" stop-color="#006A6A"/>
</linearGradient>
</defs>
</svg>
