<svg width="25" height="25" viewBox="0 0 25 25" fill="none" xmlns="http://www.w3.org/2000/svg">
<g filter="url(#filter0_b_207_176)">
<rect width="25" height="25" rx="5" fill="#D0D5D9"/>
<rect x="0.5" y="0.5" width="24" height="24" rx="4.5" stroke="#BFC8CF"/>
</g>
<path fill-rule="evenodd" clip-rule="evenodd" d="M14.9656 15.0256C13.9503 15.7735 12.6899 16.1102 11.4369 15.9682C10.1839 15.8262 9.03085 15.216 8.20872 14.2598C7.38659 13.3036 6.95611 12.0721 7.00354 10.812C7.05097 9.55182 7.57279 8.35615 8.46447 7.46447C9.35615 6.57279 10.5518 6.05097 11.812 6.00354C13.0721 5.95611 14.3036 6.38659 15.2598 7.20872C16.216 8.03085 16.8262 9.18392 16.9682 10.4369C17.1102 11.6899 16.7735 12.9503 16.0256 13.9656L18.7806 16.7196C18.8543 16.7882 18.9134 16.871 18.9544 16.963C18.9954 17.055 19.0174 17.1544 19.0192 17.2551C19.021 17.3558 19.0024 17.4558 18.9647 17.5492C18.927 17.6426 18.8708 17.7274 18.7996 17.7986C18.7284 17.8698 18.6436 17.926 18.5502 17.9637C18.4568 18.0014 18.3568 18.02 18.2561 18.0182C18.1554 18.0164 18.056 17.9944 17.964 17.9534C17.872 17.9124 17.7892 17.8533 17.7206 17.7796L14.9656 15.0256ZM15.5006 10.9996C15.5006 11.9278 15.1318 12.8181 14.4755 13.4745C13.8191 14.1308 12.9288 14.4996 12.0006 14.4996C11.0723 14.4996 10.1821 14.1308 9.52571 13.4745C8.86934 12.8181 8.50059 11.9278 8.50059 10.9996C8.50059 10.0713 8.86934 9.18109 9.52571 8.52471C10.1821 7.86834 11.0723 7.49959 12.0006 7.49959C12.9288 7.49959 13.8191 7.86834 14.4755 8.52471C15.1318 9.18109 15.5006 10.0713 15.5006 10.9996Z" fill="white"/>
<defs>
<filter id="filter0_b_207_176" x="-4" y="-4" width="33" height="33" filterUnits="userSpaceOnUse" color-interpolation-filters="sRGB">
<feFlood flood-opacity="0" result="BackgroundImageFix"/>
<feGaussianBlur in="BackgroundImageFix" stdDeviation="2"/>
<feComposite in2="SourceAlpha" operator="in" result="effect1_backgroundBlur_207_176"/>
<feBlend mode="normal" in="SourceGraphic" in2="effect1_backgroundBlur_207_176" result="shape"/>
</filter>
</defs>
</svg>
