<svg width="34" height="33" viewBox="0 0 34 33" fill="none" xmlns="http://www.w3.org/2000/svg">
<g filter="url(#filter0_b_207_156)">
<rect x="4" y="11.0779" width="21.4096" height="20.8991" rx="5" transform="rotate(-31.1599 4 11.0779)" fill="url(#paint0_linear_207_156)" fill-opacity="0.8"/>
</g>
<g filter="url(#filter1_b_207_156)">
<rect y="7.9998" width="25" height="25" rx="5" fill="#9FD1D0" fill-opacity="0.41"/>
<rect x="0.5" y="8.4998" width="24" height="24" rx="4.5" stroke="#9FD1D0"/>
</g>
<g filter="url(#filter2_d_207_156)">
<path d="M6 25.9998V17.1316L11.8333 13.3409C11.8333 13.3409 12.2557 12.9998 12.5 12.9998C12.7443 12.9998 13.1667 13.3409 13.1667 13.3409L19 17.1316V25.9998H14.125V20.8267H10.875V25.9998H6Z" fill="white"/>
<path d="M5.99728 17.1274L5.995 17.1239V17.1316V25.9998H6V26.0048H10.875V25.9998H10.88V20.8317H14.12V25.9998H14.125V26.0048H19V25.9998H19.005V17.1316H19.0092L19.0027 17.1274L13.1696 13.3368L13.1695 13.3367L13.1686 13.336L13.165 13.3331L13.1511 13.3223C13.1391 13.3129 13.1216 13.2996 13.0998 13.2836C13.0563 13.2515 12.9958 13.2088 12.9276 13.1661C12.8594 13.1234 12.7835 13.0806 12.7092 13.0485C12.6351 13.0164 12.5621 12.9948 12.5 12.9948C12.4379 12.9948 12.3649 13.0164 12.2908 13.0485C12.2165 13.0806 12.1406 13.1234 12.0724 13.1661C12.0042 13.2088 11.9437 13.2515 11.9002 13.2836C11.8784 13.2996 11.8609 13.3129 11.8489 13.3223L11.835 13.3331L11.8314 13.336L11.8305 13.3367L11.8304 13.3368L5.99728 17.1274Z" stroke="white" stroke-width="0.01" stroke-linejoin="round"/>
</g>
<defs>
<filter id="filter0_b_207_156" x="1.86499" y="-2.13496" width="33.4045" height="33.2318" filterUnits="userSpaceOnUse" color-interpolation-filters="sRGB">
<feFlood flood-opacity="0" result="BackgroundImageFix"/>
<feGaussianBlur in="BackgroundImageFix" stdDeviation="2"/>
<feComposite in2="SourceAlpha" operator="in" result="effect1_backgroundBlur_207_156"/>
<feBlend mode="normal" in="SourceGraphic" in2="effect1_backgroundBlur_207_156" result="shape"/>
</filter>
<filter id="filter1_b_207_156" x="-4" y="3.9998" width="33" height="33" filterUnits="userSpaceOnUse" color-interpolation-filters="sRGB">
<feFlood flood-opacity="0" result="BackgroundImageFix"/>
<feGaussianBlur in="BackgroundImageFix" stdDeviation="2"/>
<feComposite in2="SourceAlpha" operator="in" result="effect1_backgroundBlur_207_156"/>
<feBlend mode="normal" in="SourceGraphic" in2="effect1_backgroundBlur_207_156" result="shape"/>
</filter>
<filter id="filter2_d_207_156" x="1.98999" y="10.9898" width="21.0283" height="21.02" filterUnits="userSpaceOnUse" color-interpolation-filters="sRGB">
<feFlood flood-opacity="0" result="BackgroundImageFix"/>
<feColorMatrix in="SourceAlpha" type="matrix" values="0 0 0 0 0 0 0 0 0 0 0 0 0 0 0 0 0 0 127 0" result="hardAlpha"/>
<feOffset dy="2"/>
<feGaussianBlur stdDeviation="2"/>
<feComposite in2="hardAlpha" operator="out"/>
<feColorMatrix type="matrix" values="0 0 0 0 0.133333 0 0 0 0 0.721569 0 0 0 0 0.74902 0 0 0 0.25 0"/>
<feBlend mode="normal" in2="BackgroundImageFix" result="effect1_dropShadow_207_156"/>
<feBlend mode="normal" in="SourceGraphic" in2="effect1_dropShadow_207_156" result="shape"/>
</filter>
<linearGradient id="paint0_linear_207_156" x1="14.7048" y1="11.0779" x2="14.7048" y2="31.9771" gradientUnits="userSpaceOnUse">
<stop stop-color="#22B8BF"/>
<stop offset="1" stop-color="#62B0F0"/>
</linearGradient>
</defs>
</svg>
