<svg width="25" height="25" viewBox="0 0 25 25" fill="none" xmlns="http://www.w3.org/2000/svg">
<g filter="url(#filter0_b_207_163)">
<rect width="25" height="25" rx="5" fill="#D0D5D9"/>
<rect x="0.5" y="0.5" width="24" height="24" rx="4.5" stroke="#BFC8CF"/>
</g>
<path d="M11.0782 9.47376L11.0783 9.47374C11.4437 9.18945 11.985 8.98926 12.6156 8.98926C13.6398 8.98926 14.3583 9.49885 14.5821 9.99426L14.5822 9.99445C14.6265 10.092 14.6889 10.1797 14.7662 10.2525C14.8435 10.3254 14.9341 10.3819 15.0328 10.4187C15.1316 10.4556 15.2365 10.4719 15.3415 10.4667C15.4465 10.4615 15.5494 10.4349 15.6443 10.3885C15.7391 10.3422 15.8239 10.277 15.8941 10.1969C15.9642 10.1169 16.0183 10.0235 16.0534 9.92216C16.0885 9.82083 16.104 9.71341 16.0991 9.60601C16.0942 9.49861 16.0689 9.39316 16.0246 9.29567L16.0246 9.29565C15.4668 8.06895 14.0731 7.34482 12.6149 7.34482C11.6719 7.34482 10.7864 7.64148 10.1199 8.15959L10.1199 8.15963C9.45342 8.67844 8.9672 9.45732 8.9672 10.385C8.9672 11.3127 9.45345 12.0908 10.1199 12.6096C10.7864 13.1285 11.6712 13.4251 12.6149 13.4251C12.8273 13.4251 13.0302 13.3376 13.1793 13.183C13.3282 13.0285 13.4112 12.8198 13.4112 12.6029C13.4112 12.386 13.3282 12.1773 13.1793 12.0228C13.0302 11.8682 12.8273 11.7807 12.6149 11.7807C11.9844 11.7807 11.4438 11.5805 11.0783 11.2963C10.7139 11.0122 10.5598 10.6812 10.5598 10.3843C10.5598 10.0874 10.7138 9.75707 11.0782 9.47376Z" fill="white" stroke="white" stroke-width="0.2"/>
<path d="M13.9218 15.7309L13.9218 15.731L9.06651 15.8669L8.97544 15.9083C8.97545 15.9083 8.97546 15.9083 8.97547 15.9083C9.53254 17.1358 10.927 17.8599 12.3851 17.8599C13.3289 17.8599 14.213 17.5632 14.8795 17.0443C15.5467 16.5262 16.0321 15.7473 16.0321 14.8197C16.0321 13.8921 15.5466 13.1139 14.8802 12.5951C14.2136 12.0762 13.3288 11.7796 12.3851 11.7796C12.1727 11.7796 11.9698 11.8671 11.8208 12.0217C11.6719 12.1762 11.5888 12.3849 11.5888 12.6018C11.5888 12.8187 11.6719 13.0274 11.8208 13.1819C11.9698 13.3365 12.1727 13.424 12.3851 13.424C13.015 13.424 13.5563 13.6242 13.921 13.9084L13.9212 13.9086C14.286 14.1917 14.4395 14.5234 14.4395 14.8204C14.4395 15.1174 14.2861 15.4477 13.9218 15.7309ZM13.9832 15.8099C14.3668 15.5116 14.5395 15.1541 14.5395 14.8204C14.5395 14.4868 14.3668 14.1278 13.9825 13.8296C13.5988 13.5306 13.0355 13.324 12.3851 13.324C12.2005 13.324 12.0233 13.2479 11.8928 13.1125C11.7622 12.977 11.6888 12.7933 11.6888 12.6018C11.6888 12.4103 11.7622 12.2266 11.8928 12.0911C12.0233 11.9557 12.2005 11.8796 12.3851 11.8796C13.3084 11.8796 14.1712 12.1699 14.8187 12.674C15.4663 13.1781 15.9321 13.9292 15.9321 14.8197C15.9321 15.7102 15.4663 16.4621 14.818 16.9654L13.9832 15.8099ZM13.0456 6.14213C12.8965 5.98755 12.6936 5.9 12.4812 5.9C12.2688 5.9 12.0659 5.98755 11.9169 6.14213C11.7679 6.29658 11.6849 6.50531 11.6849 6.72222V7.44444C11.6849 7.66135 11.7679 7.87008 11.9169 8.02453C12.0659 8.17911 12.2688 8.26665 12.4812 8.26665C12.6936 8.26665 12.8965 8.17911 13.0456 8.02453C13.1945 7.87008 13.2775 7.66135 13.2775 7.44444V6.72222C13.2775 6.50531 13.1945 6.29658 13.0456 6.14213Z" fill="white" stroke="white" stroke-width="0.2"/>
<path d="M13.0456 16.9756C12.8965 16.821 12.6936 16.7335 12.4812 16.7335C12.2688 16.7335 12.0659 16.821 11.9169 16.9756C11.768 17.1301 11.6849 17.3388 11.6849 17.5557V18.2779C11.6849 18.4948 11.768 18.7036 11.9169 18.858C12.0659 19.0126 12.2688 19.1002 12.4812 19.1002C12.6936 19.1002 12.8965 19.0126 13.0456 18.858C13.1945 18.7036 13.2775 18.4948 13.2775 18.2779V17.5557C13.2775 17.3388 13.1945 17.1301 13.0456 16.9756Z" fill="white" stroke="white" stroke-width="0.2"/>
<defs>
<filter id="filter0_b_207_163" x="-4" y="-4" width="33" height="33" filterUnits="userSpaceOnUse" color-interpolation-filters="sRGB">
<feFlood flood-opacity="0" result="BackgroundImageFix"/>
<feGaussianBlur in="BackgroundImageFix" stdDeviation="2"/>
<feComposite in2="SourceAlpha" operator="in" result="effect1_backgroundBlur_207_163"/>
<feBlend mode="normal" in="SourceGraphic" in2="effect1_backgroundBlur_207_163" result="shape"/>
</filter>
</defs>
</svg>
